<svg width="34" height="39" viewBox="0 0 34 39" fill="none" xmlns="http://www.w3.org/2000/svg">
<path d="M9 23.8845C8.51033 23.8845 8.093 23.7121 7.748 23.3675C7.40333 23.0225 7.231 22.6051 7.231 22.1155C7.231 21.6258 7.40333 21.2085 7.748 20.8635C8.093 20.5185 8.51033 20.346 9 20.346C9.48967 20.346 9.907 20.5185 10.252 20.8635C10.5967 21.2085 10.769 21.6258 10.769 22.1155C10.769 22.6051 10.5967 23.0225 10.252 23.3675C9.907 23.7121 9.48967 23.8845 9 23.8845ZM17 23.8845C16.5103 23.8845 16.093 23.7121 15.748 23.3675C15.4033 23.0225 15.231 22.6051 15.231 22.1155C15.231 21.6258 15.4033 21.2085 15.748 20.8635C16.093 20.5185 16.5103 20.346 17 20.346C17.4897 20.346 17.907 20.5185 18.252 20.8635C18.5967 21.2085 18.769 21.6258 18.769 22.1155C18.769 22.6051 18.5967 23.0225 18.252 23.3675C17.907 23.7121 17.4897 23.8845 17 23.8845ZM25 23.8845C24.5103 23.8845 24.093 23.7121 23.748 23.3675C23.4033 23.0225 23.231 22.6051 23.231 22.1155C23.231 21.6258 23.4033 21.2085 23.748 20.8635C24.093 20.5185 24.5103 20.346 25 20.346C25.4897 20.346 25.907 20.5185 26.252 20.8635C26.5967 21.2085 26.769 21.6258 26.769 22.1155C26.769 22.6051 26.5967 23.0225 26.252 23.3675C25.907 23.7121 25.4897 23.8845 25 23.8845ZM3.6155 39C2.60517 39 1.75 38.65 1.05 37.95C0.35 37.25 0 36.3948 0 35.3845V8.61547C0 7.60514 0.35 6.74997 1.05 6.04997C1.75 5.34997 2.60517 4.99997 3.6155 4.99997H6.3845V2.30747C6.3845 1.86914 6.53133 1.50314 6.825 1.20947C7.11867 0.916136 7.48467 0.76947 7.923 0.76947C8.36167 0.76947 8.72767 0.916136 9.021 1.20947C9.31467 1.50314 9.4615 1.86914 9.4615 2.30747V4.99997H24.6155V2.26947C24.6155 1.8438 24.759 1.4873 25.046 1.19997C25.3333 0.912969 25.6898 0.76947 26.1155 0.76947C26.5412 0.76947 26.8975 0.912969 27.1845 1.19997C27.4718 1.4873 27.6155 1.8438 27.6155 2.26947V4.99997H30.3845C31.3948 4.99997 32.25 5.34997 32.95 6.04997C33.65 6.74997 34 7.60514 34 8.61547V35.3845C34 36.3948 33.65 37.25 32.95 37.95C32.25 38.65 31.3948 39 30.3845 39H3.6155ZM3.6155 36H30.3845C30.5385 36 30.6795 35.9358 30.8075 35.8075C30.9358 35.6795 31 35.5385 31 35.3845V16.6155H3V35.3845C3 35.5385 3.06417 35.6795 3.1925 35.8075C3.3205 35.9358 3.4615 36 3.6155 36ZM3 13.6155H31V8.61547C31 8.46147 30.9358 8.32047 30.8075 8.19247C30.6795 8.06413 30.5385 7.99997 30.3845 7.99997H3.6155C3.4615 7.99997 3.3205 8.06413 3.1925 8.19247C3.06417 8.32047 3 8.46147 3 8.61547V13.6155Z" fill="#F23E2E"/>
</svg>
